<mxfile host="app.diagrams.net" agent="Mozilla/5.0 (Windows NT 10.0; Win64; x64) AppleWebKit/537.36 (KHTML, like Gecko) Chrome/131.0.0.0 Safari/537.36 Edg/131.0.0.0" version="25.0.1">
  <diagram name="Page-1" id="KCfoXe73xbfXctKrZwt6">
    <mxGraphModel dx="1666" dy="747" grid="1" gridSize="10" guides="1" tooltips="1" connect="1" arrows="1" fold="1" page="1" pageScale="1" pageWidth="850" pageHeight="1100" math="0" shadow="0">
      <root>
        <mxCell id="0" />
        <mxCell id="1" parent="0" />
        <mxCell id="X5V-ixQES4MmxNYOm2Pr-8" style="edgeStyle=orthogonalEdgeStyle;rounded=0;orthogonalLoop=1;jettySize=auto;html=1;" parent="1" source="X5V-ixQES4MmxNYOm2Pr-1" edge="1">
          <mxGeometry relative="1" as="geometry">
            <mxPoint x="470" y="280" as="targetPoint" />
          </mxGeometry>
        </mxCell>
        <mxCell id="X5V-ixQES4MmxNYOm2Pr-1" value="Assignement pro" style="rounded=0;whiteSpace=wrap;html=1;" parent="1" vertex="1">
          <mxGeometry x="160" y="110" width="120" height="60" as="geometry" />
        </mxCell>
        <mxCell id="X5V-ixQES4MmxNYOm2Pr-2" value="Anypoint Platform&amp;nbsp;" style="rounded=0;whiteSpace=wrap;html=1;" parent="1" vertex="1">
          <mxGeometry x="170" y="280" width="120" height="60" as="geometry" />
        </mxCell>
        <mxCell id="X5V-ixQES4MmxNYOm2Pr-3" style="edgeStyle=orthogonalEdgeStyle;rounded=0;orthogonalLoop=1;jettySize=auto;html=1;entryX=0.583;entryY=1;entryDx=0;entryDy=0;entryPerimeter=0;" parent="1" source="X5V-ixQES4MmxNYOm2Pr-2" target="X5V-ixQES4MmxNYOm2Pr-1" edge="1">
          <mxGeometry relative="1" as="geometry" />
        </mxCell>
        <mxCell id="X5V-ixQES4MmxNYOm2Pr-5" style="edgeStyle=orthogonalEdgeStyle;rounded=0;orthogonalLoop=1;jettySize=auto;html=1;" parent="1" source="X5V-ixQES4MmxNYOm2Pr-4" edge="1">
          <mxGeometry relative="1" as="geometry">
            <mxPoint x="230" y="350" as="targetPoint" />
          </mxGeometry>
        </mxCell>
        <mxCell id="X5V-ixQES4MmxNYOm2Pr-6" value="Generate Token&amp;nbsp;" style="edgeLabel;html=1;align=center;verticalAlign=middle;resizable=0;points=[];" parent="X5V-ixQES4MmxNYOm2Pr-5" vertex="1" connectable="0">
          <mxGeometry x="0.0964" y="-2" relative="1" as="geometry">
            <mxPoint as="offset" />
          </mxGeometry>
        </mxCell>
        <mxCell id="X5V-ixQES4MmxNYOm2Pr-7" value="CK and CS" style="edgeLabel;html=1;align=center;verticalAlign=middle;resizable=0;points=[];" parent="X5V-ixQES4MmxNYOm2Pr-5" vertex="1" connectable="0">
          <mxGeometry x="-0.4268" y="-1" relative="1" as="geometry">
            <mxPoint as="offset" />
          </mxGeometry>
        </mxCell>
        <mxCell id="X5V-ixQES4MmxNYOm2Pr-4" value="Benivo" style="rounded=0;whiteSpace=wrap;html=1;" parent="1" vertex="1">
          <mxGeometry x="170" y="530" width="120" height="60" as="geometry" />
        </mxCell>
        <mxCell id="X5V-ixQES4MmxNYOm2Pr-9" value="Anypoint Platform&amp;nbsp;" style="rounded=0;whiteSpace=wrap;html=1;" parent="1" vertex="1">
          <mxGeometry x="390" y="280" width="120" height="60" as="geometry" />
        </mxCell>
        <mxCell id="X5V-ixQES4MmxNYOm2Pr-10" style="edgeStyle=orthogonalEdgeStyle;rounded=0;orthogonalLoop=1;jettySize=auto;html=1;entryX=0.992;entryY=0.617;entryDx=0;entryDy=0;entryPerimeter=0;" parent="1" source="X5V-ixQES4MmxNYOm2Pr-9" target="X5V-ixQES4MmxNYOm2Pr-4" edge="1">
          <mxGeometry relative="1" as="geometry" />
        </mxCell>
        <mxCell id="X5V-ixQES4MmxNYOm2Pr-11" value="Milestone" style="edgeLabel;html=1;align=center;verticalAlign=middle;resizable=0;points=[];" parent="X5V-ixQES4MmxNYOm2Pr-10" vertex="1" connectable="0">
          <mxGeometry x="-0.1781" y="3" relative="1" as="geometry">
            <mxPoint as="offset" />
          </mxGeometry>
        </mxCell>
        <mxCell id="X5V-ixQES4MmxNYOm2Pr-12" value="Client 1" style="rounded=0;whiteSpace=wrap;html=1;" parent="1" vertex="1">
          <mxGeometry x="425" y="510" width="120" height="60" as="geometry" />
        </mxCell>
        <mxCell id="X5V-ixQES4MmxNYOm2Pr-13" value="Client 2" style="rounded=0;whiteSpace=wrap;html=1;" parent="1" vertex="1">
          <mxGeometry x="610" y="510" width="120" height="60" as="geometry" />
        </mxCell>
        <mxCell id="X5V-ixQES4MmxNYOm2Pr-14" value="" style="endArrow=classic;html=1;rounded=0;exitX=0.85;exitY=1.05;exitDx=0;exitDy=0;exitPerimeter=0;" parent="1" source="X5V-ixQES4MmxNYOm2Pr-2" edge="1">
          <mxGeometry width="50" height="50" relative="1" as="geometry">
            <mxPoint x="250" y="360" as="sourcePoint" />
            <mxPoint x="270" y="520" as="targetPoint" />
          </mxGeometry>
        </mxCell>
        <mxCell id="X5V-ixQES4MmxNYOm2Pr-15" value="200 / 401&amp;nbsp;" style="edgeLabel;html=1;align=center;verticalAlign=middle;resizable=0;points=[];" parent="X5V-ixQES4MmxNYOm2Pr-14" vertex="1" connectable="0">
          <mxGeometry x="-0.435" relative="1" as="geometry">
            <mxPoint as="offset" />
          </mxGeometry>
        </mxCell>
        <mxCell id="X5V-ixQES4MmxNYOm2Pr-16" value="Status Code" style="edgeLabel;html=1;align=center;verticalAlign=middle;resizable=0;points=[];" parent="X5V-ixQES4MmxNYOm2Pr-14" vertex="1" connectable="0">
          <mxGeometry x="-0.8192" relative="1" as="geometry">
            <mxPoint as="offset" />
          </mxGeometry>
        </mxCell>
      </root>
    </mxGraphModel>
  </diagram>
</mxfile>
